<?xml version="1.0" encoding="UTF-8"?>
<svg width="96px" height="70px" viewBox="0 0 96 70" version="1.1" xmlns="http://www.w3.org/2000/svg" xmlns:xlink="http://www.w3.org/1999/xlink">
    <!-- Generator: Sketch 58 (84663) - https://sketch.com -->
    <title>Logo/Hippo</title>
    <desc>Created with Sketch.</desc>
    <g id="Symbols" stroke="none" stroke-width="1" fill="none" fill-rule="evenodd">
        <g id="Menu-/-Desktop-/-#1" transform="translate(-110.000000, -20.000000)">
            <g id="Logo/Hippo">
                <g>
                    <g transform="translate(110.000000, 20.000000)">
                        <g>
                            <path d="M76.3963568,13.9707512 C74.8902066,12.0488732 73.1139155,9.89004695 70.9222254,8.60079812 C68.0315211,6.90403756 64.4749953,5.79521127 61.0055587,4.78530516 C57.229831,3.68502347 53.4544319,3.28309859 49.2629765,2.99816901 C45.446169,2.73755869 41.316169,2.16638498 37.2939624,1.56596244 C33.721662,1.03126761 28.5955587,0.118967136 24.7527887,0.372018779 C13.3457465,1.12887324 5.82189671,8.35530516 2.06490141,17.7875587 C0.796356808,20.972723 -0.399887324,25.281831 0.127906103,29.3556338 C0.554807512,32.6607512 2.07738967,35.4692958 3.66241315,37.8246479 C5.34898592,40.331831 6.13410329,43.0056338 6.85415023,46.6499061 C7.50879812,49.9750704 8.21504225,52.8168075 9.59105164,55.9533333 C10.613446,58.2929108 12.1895962,62.9530047 14.2633052,63.5876056 C17.0679061,64.4420657 22.3583286,64.4446948 23.384338,61.9177934 C24.3130704,59.6294836 22.7858873,57.2885915 21.6747606,55.7147418 C20.631662,54.2407981 18.9480469,52.908169 19.7364507,51.0622066 C22.7139155,51.7253991 24.9578592,53.1539906 27.7167793,54.0452582 C28.7864977,55.7607512 28.7395023,58.3474648 30.3389859,59.4122535 C31.5289859,60.2032864 33.3828357,59.713615 34.7844789,60.604554 C35.6708169,62.3594836 35.214338,63.6375587 35.8101596,65.2580751 C36.151615,66.1815493 37.6459343,68.285493 39.0028826,68.9539437 C40.91523,69.8935211 45.6972488,69.8028169 47.8938685,68.8349765 C48.9918498,68.3518779 50.2646667,67.1523474 50.2896432,65.9725352 C50.3198779,64.481831 48.9435399,63.2862441 48.0095493,62.1576995 C47.0795023,61.0337559 45.7560751,59.974554 45.5003944,58.4578873 C45.2105352,56.7223474 46.0528357,53.2331925 46.6410986,52.2561502 C47.2474366,51.2515023 48.3855117,50.7838498 49.4913803,50.229108 C51.6041972,52.8266667 51.3399718,57.9156338 53.0245728,60.9624413 C54.5773897,61.9877934 57.820723,63.0256338 60.7764977,63.1110798 C61.8337277,63.1416432 63.6238216,63.2339906 64.5377653,62.8715023 C65.2913333,62.5730986 66.7527887,60.5631455 66.7054648,59.6528169 C66.6042441,57.734554 63.5883286,57.4686854 62.9445258,55.5964319 C62.2944789,53.7143192 62.9994085,51.9725352 63.2849953,49.9905164 C64.3274366,49.9343192 64.929831,50.4713146 66.0218967,50.5869953 C67.7860282,50.7733333 69.6175305,49.7847887 71.038892,50.229108 C72.431662,50.6655399 73.1845728,53.157277 74.2286573,54.164554 C74.9171549,54.8274178 76.2353239,55.3453521 77.1936338,56.1938967 C78.2600657,57.1324883 78.7533521,58.4135211 79.8155117,59.0553521 C82.5382817,60.6975587 90.0657465,61.1517371 93.1536338,59.4122535 C95.5464507,58.0641784 95.8842911,55.4051643 95.6621315,52.3738028 C95.5474366,50.82 95.3413803,49.1915962 94.7508169,48.0791549 C94.3219437,47.2785915 93.4490798,46.6923005 92.6981408,45.9351174 C90.5636338,43.7858216 88.702554,41.5086854 87.6814742,38.2995305 C88.3821315,36.5212676 88.8941502,35.2530516 88.7068263,33.6512676 C88.3985634,30.9961972 85.5610986,29.2655869 85.5164038,26.852723 C85.4763099,24.7517371 87.7991268,22.9823474 86.4273897,20.8889202 C85.4010516,20.588216 85.3320376,22.2744601 84.6054178,22.676385 C81.0383756,20.4390141 78.9485634,17.22723 76.3963568,13.9707512" id="Fill-1" fill="#FFFFFF"></path>
                            <path d="M64.3047277,29.4670423 C68.3854319,29.4670423 70.9948216,32.5447418 70.9948216,36.47 C70.9948216,40.3505634 68.3854319,43.4499531 64.3047277,43.4499531 C60.2900798,43.4499531 57.6810188,40.3505634 57.6810188,36.47 C57.6810188,32.5447418 60.2900798,29.4670423 64.3047277,29.4670423 Z M16.5692958,29.7569014 L16.5692958,35.7115023 L23.7944131,35.7115023 L23.7944131,29.7569014 L25.6456338,29.7569014 L25.6456338,43.1380751 L23.7944131,43.1380751 L23.7944131,37.3392488 L16.5692958,37.3392488 L16.5692958,43.1380751 L14.7400939,43.1380751 L14.7400939,29.7569014 L16.5692958,29.7569014 Z M30.2952113,29.7569014 L30.2952113,43.1380751 L28.4666667,43.1380751 L28.4666667,29.7569014 L30.2952113,29.7569014 Z M38.4071596,29.7569014 C41.5519014,29.7569014 43.4921831,31.3846479 43.4921831,34.2171831 C43.4921831,37.205493 41.4625117,38.8335681 38.3180986,38.8335681 L34.8614789,38.8335681 L34.8614789,43.1380751 L33.0329343,43.1380751 L33.0329343,29.7569014 L38.4071596,29.7569014 Z M50.8650892,29.7569014 C54.009831,29.7569014 55.9501127,31.3846479 55.9501127,34.2171831 C55.9501127,37.205493 53.9204413,38.8335681 50.7763568,38.8335681 L47.3197371,38.8335681 L47.3197371,43.1380751 L45.4908638,43.1380751 L45.4908638,29.7569014 L50.8650892,29.7569014 Z M64.3047277,31.2065258 C61.4281549,31.2065258 59.576277,33.5484038 59.576277,36.47 C59.576277,39.3689202 61.4281549,41.6884507 64.3047277,41.6884507 C67.2263239,41.6884507 69.0992347,39.3689202 69.0992347,36.47 C69.0992347,33.5484038 67.2263239,31.2065258 64.3047277,31.2065258 Z M38.3180986,31.4296714 L34.8614789,31.4296714 L34.8614789,37.1611268 L38.3180986,37.1611268 C40.3254225,37.1611268 41.6192723,36.3132394 41.6192723,34.2622066 C41.6192723,32.3442723 40.3030751,31.4296714 38.3180986,31.4296714 Z M50.7763568,31.4296714 L47.3197371,31.4296714 L47.3197371,37.1611268 L50.7763568,37.1611268 C52.7833521,37.1611268 54.0768732,36.3132394 54.0768732,34.2622066 C54.0768732,32.3442723 52.7610047,31.4296714 50.7763568,31.4296714 Z M34.8134977,13.2360469 L34.8134977,14.9084883 L27.186784,14.9084883 L27.186784,19.0345446 L33.6764085,19.0345446 L33.6764085,20.6622911 L27.186784,20.6622911 L27.186784,26.616892 L25.3579108,26.616892 L25.3579108,13.2360469 L34.8134977,13.2360469 Z M41.3829812,13.2360798 L47.0250469,26.6169249 L45.0847653,26.6169249 L43.9026526,23.7400235 L37.1008216,23.7400235 L35.9190376,26.6169249 L34.0007746,26.6169249 L39.6208216,13.2360798 L41.3829812,13.2360798 Z M56.5344648,13.2361455 L56.5344648,14.9085869 L52.1862488,14.9085869 L52.1862488,26.6169906 L50.3577042,26.6169906 L50.3577042,14.9085869 L46.0308498,14.9085869 L46.0308498,13.2361455 L56.5344648,13.2361455 Z M40.5130751,15.4885681 L37.7699296,22.112277 L43.2335446,22.112277 L40.5130751,15.4885681 Z" id="Combined-Shape" fill="#000000"></path>
                        </g>
                    </g>
                </g>
            </g>
        </g>
    </g>
</svg>